<svg xmlns:dc="http://purl.org/dc/elements/1.1/" xmlns:cc="http://creativecommons.org/ns#" xmlns:rdf="http://www.w3.org/1999/02/22-rdf-syntax-ns#" xmlns:svg="http://www.w3.org/2000/svg" xmlns="http://www.w3.org/2000/svg" version="1.1" viewBox="0 0 100.00001 125" xml:space="preserve" x="0px" y="0px"><path d="M 30.21875,5 C 26.419976,5 23.25,8.0435897 23.25,11.84375 l 0,76.3125 C 23.25,91.95425 26.419976,95 30.21875,95 l 39.71875,0 c 3.799296,0 6.8125,-3.04575 6.8125,-6.84375 l 0,-76.3125 C 76.75,8.0437697 73.736796,5 69.9375,5 L 30.21875,5 z M 44.1875,8.53125 c 0.09104,-0.018774 0.184199,0 0.28125,0 l 11.34375,0 c 0.742374,0.03744 1.34375,0.6558301 1.34375,1.40625 0,0.75456 -0.62798,1.36863 -1.34375,1.40625 l -11.28125,0 c -0.896094,0 -1.4375,-0.63009 -1.4375,-1.40625 0,-0.6799274 0.456495,-1.2748335 1.09375,-1.40625 z m -18.0625,6.3125 47.9375,0 0,66.1875 -47.9375,0 0,-66.1875 z M 58.03125,18.75 c -2.499714,0 -4.828828,0.67735 -6.8125,1.84375 1.992402,1.042201 3.72357,2.54393 5.0625,4.34375 0.558972,-0.17586 1.133536,-0.25 1.75,-0.25 3.268728,0 5.9375,2.63961 5.9375,5.90625 0,2.88756 -2.07362,5.29284 -4.8125,5.8125 -0.63711,3.724201 -3.023444,6.8205 -5.375,9.75 1.879956,2.69478 3.504836,5.92465 4.25,10.46875 2.985966,-10.659059 8.289519,-14.2066 11.78125,-20.125 0.805302,-1.6128 1.25,-3.39964 1.25,-5.3125 0,-6.860879 -5.846821,-12.4375 -13.03125,-12.4375 z m -14.625,1.375 c -7.989821,0 -14.46875,6.18914 -14.46875,13.8125 0,2.12058 0.482506,4.11417 1.375,5.90625 3.884293,6.575939 11.151676,10.531721 13.09375,22.375 3.317778,-11.843279 9.214066,-15.799061 13.09375,-22.375 0.894798,-1.79208 1.375,-3.78099 1.375,-5.90625 0,-7.62336 -6.486038,-13.8125 -14.46875,-13.8125 z m 0,6.5625 c 3.63195,0 6.59375,2.964229 6.59375,6.59375 0,3.6297 -2.9618,6.5625 -6.59375,6.5625 -3.62961,0 -6.5625,-2.9328 -6.5625,-6.5625 0,-3.629521 2.93289,-6.59375 6.5625,-6.59375 z m 1.90625,1.78125 C 45.106904,29.34553 45,30.25186 45,31.1875 c 0,1.90854 0.44675,3.6997 1.25,5.3125 0.143748,0.24336 0.283816,0.48295 0.4375,0.71875 0.420264,-0.33372 0.805624,-0.71932 1.09375,-1.1875 1.87371,-2.54358 0.29155,-6.39502 -2.46875,-7.5625 z m 21.28125,28.5 c -1.522709,0.104718 -2.957971,0.923998 -3.78125,2.34375 -0.665972,1.148475 -0.763813,2.469915 -0.4375,3.65625 L 53.0625,69.625 c -0.21344,-0.181193 -0.436762,-0.354603 -0.6875,-0.5 -2.271604,-1.317246 -5.182754,-0.552854 -6.5,1.71875 -0.09936,0.171349 -0.142928,0.3536 -0.21875,0.53125 L 37.75,69.875 c -0.190949,-1.40478 -0.959864,-2.702512 -2.28125,-3.46875 -2.271604,-1.317246 -5.182754,-0.552854 -6.5,1.71875 -1.317246,2.271604 -0.552854,5.182754 1.71875,6.5 2.271604,1.317246 5.182754,0.552854 6.5,-1.71875 0.03472,-0.05988 0.06192,-0.126772 0.09375,-0.1875 L 45.375,74.25 c 0.274094,1.260673 1.045997,2.395579 2.25,3.09375 2.271604,1.317246 5.182754,0.552854 6.5,-1.71875 0.653109,-1.126293 0.771388,-2.425693 0.46875,-3.59375 L 63.9375,65.375 c 0.189534,0.153378 0.376224,0.311362 0.59375,0.4375 2.271604,1.317246 5.182754,0.552854 6.5,-1.71875 1.317246,-2.271604 0.552854,-5.182754 -1.71875,-6.5 -0.851851,-0.493967 -1.805124,-0.687831 -2.71875,-0.625 z m -16.5,26.8125 c 2.333862,0 4.21875,1.88649 4.21875,4.21875 0,2.33118 -1.884888,4.25 -4.21875,4.25 -2.332459,0 -4.21875,-1.91882 -4.21875,-4.25 0,-2.33226 1.886273,-4.21875 4.21875,-4.21875 z" transform="translate(0,-5e-6)" style="" fill="#000000" fill-opacity="1"/></svg>
